<svg width="1600" height="147" viewBox="0 0 1600 147" fill="none" xmlns="http://www.w3.org/2000/svg">
<rect width="1600" height="147" fill="#E9E9E9"/>
<path fill-rule="evenodd" clip-rule="evenodd" d="M74.6986 30.3377C74.7123 26.8369 71.8134 25.3152 69.4937 24.0975C67.9358 23.2798 66.6393 22.5992 66.6617 21.5484C66.6781 20.7533 67.4371 19.9056 69.0931 19.692C71.0325 19.5045 72.9864 19.8451 74.7479 20.6777L75.7566 15.9857C74.0419 15.3412 72.2261 15.0075 70.3943 15C64.7429 15 60.7376 18.013 60.7014 22.3304C60.6653 25.5143 63.5501 27.3017 65.7286 28.363C67.9629 29.4473 68.7153 30.1439 68.7054 31.1164C68.7054 32.6049 66.9213 33.2587 65.2751 33.285C62.4794 33.3296 60.8224 32.5564 59.5085 31.9434L59.3839 31.8853L58.3357 36.7416C59.6763 37.3593 62.1504 37.8949 64.7166 37.9211C70.7393 37.9211 74.6821 34.9443 74.7019 30.3377H74.6986ZM50.9429 15.4041L41.6541 37.5729H35.592L31.0216 19.8826C30.7423 18.7917 30.5024 18.3941 29.658 17.9341C28.2714 17.1883 26.0043 16.4851 24 16.0481L24.138 15.391H33.8933C35.2059 15.3964 36.3201 16.3546 36.5219 17.6516L38.9369 30.4823L44.9234 15.4041H50.9429ZM94.9714 37.5663H89.6683L88.975 34.2641H81.6183L80.4223 37.5729H74.4029L83.0016 17.0306C83.409 16.0425 84.3741 15.3996 85.4429 15.4041H90.3419L94.9714 37.5663ZM83.2677 29.72L86.2873 21.394L88.0254 29.72H83.2677ZM54.3994 37.5729L59.1571 15.4041H53.4071L48.6626 37.5729H54.3994Z" fill="#1435CB"/>
<path d="M142.614 21.97C142.082 21.97 141.601 22.0633 141.172 22.25C140.742 22.4273 140.378 22.6933 140.08 23.048C139.781 23.3933 139.552 23.818 139.394 24.322C139.235 24.8167 139.156 25.3767 139.156 26.002C139.156 26.8233 139.282 27.5373 139.534 28.144C139.795 28.7507 140.178 29.2173 140.682 29.544C141.195 29.8707 141.834 30.034 142.6 30.034C143.038 30.034 143.454 29.9967 143.846 29.922C144.238 29.8473 144.62 29.754 144.994 29.642V30.734C144.62 30.874 144.233 30.9767 143.832 31.042C143.44 31.1073 142.968 31.14 142.418 31.14C141.4 31.14 140.551 30.93 139.87 30.51C139.188 30.09 138.675 29.4927 138.33 28.718C137.994 27.9433 137.826 27.0333 137.826 25.988C137.826 25.232 137.928 24.5413 138.134 23.916C138.348 23.2907 138.656 22.7493 139.058 22.292C139.468 21.8347 139.972 21.4847 140.57 21.242C141.167 20.99 141.853 20.864 142.628 20.864C143.141 20.864 143.636 20.9153 144.112 21.018C144.588 21.1207 145.012 21.2653 145.386 21.452L144.882 22.516C144.574 22.376 144.228 22.25 143.846 22.138C143.472 22.026 143.062 21.97 142.614 21.97ZM153.531 27.234C153.531 27.8593 153.447 28.4147 153.279 28.9C153.121 29.376 152.887 29.782 152.579 30.118C152.281 30.454 151.912 30.7107 151.473 30.888C151.044 31.056 150.563 31.14 150.031 31.14C149.537 31.14 149.079 31.056 148.659 30.888C148.239 30.7107 147.875 30.454 147.567 30.118C147.259 29.782 147.017 29.376 146.839 28.9C146.671 28.4147 146.587 27.8593 146.587 27.234C146.587 26.4033 146.727 25.7033 147.007 25.134C147.287 24.5553 147.689 24.1167 148.211 23.818C148.734 23.51 149.355 23.356 150.073 23.356C150.755 23.356 151.352 23.51 151.865 23.818C152.388 24.1167 152.794 24.5553 153.083 25.134C153.382 25.7033 153.531 26.4033 153.531 27.234ZM147.861 27.234C147.861 27.822 147.936 28.3353 148.085 28.774C148.244 29.2033 148.487 29.5347 148.813 29.768C149.14 30.0013 149.555 30.118 150.059 30.118C150.563 30.118 150.979 30.0013 151.305 29.768C151.632 29.5347 151.87 29.2033 152.019 28.774C152.178 28.3353 152.257 27.822 152.257 27.234C152.257 26.6367 152.178 26.128 152.019 25.708C151.861 25.288 151.618 24.966 151.291 24.742C150.974 24.5087 150.559 24.392 150.045 24.392C149.28 24.392 148.725 24.644 148.379 25.148C148.034 25.652 147.861 26.3473 147.861 27.234ZM159.054 23.356C159.978 23.356 160.72 23.678 161.28 24.322C161.849 24.966 162.134 25.9367 162.134 27.234C162.134 28.0833 162.003 28.802 161.742 29.39C161.49 29.9687 161.131 30.4073 160.664 30.706C160.207 30.9953 159.665 31.14 159.04 31.14C158.657 31.14 158.317 31.0887 158.018 30.986C157.719 30.8833 157.463 30.7527 157.248 30.594C157.043 30.426 156.865 30.244 156.716 30.048H156.632C156.651 30.2067 156.669 30.4073 156.688 30.65C156.707 30.8927 156.716 31.1027 156.716 31.28V34.36H155.484V23.496H156.492L156.66 24.518H156.716C156.865 24.3033 157.043 24.1073 157.248 23.93C157.463 23.7527 157.715 23.6127 158.004 23.51C158.303 23.4073 158.653 23.356 159.054 23.356ZM158.83 24.392C158.326 24.392 157.92 24.49 157.612 24.686C157.304 24.8727 157.08 25.1573 156.94 25.54C156.8 25.9227 156.725 26.408 156.716 26.996V27.234C156.716 27.85 156.781 28.3727 156.912 28.802C157.043 29.2313 157.262 29.558 157.57 29.782C157.887 30.006 158.317 30.118 158.858 30.118C159.315 30.118 159.689 29.992 159.978 29.74C160.277 29.488 160.496 29.1473 160.636 28.718C160.785 28.2793 160.86 27.78 160.86 27.22C160.86 26.3613 160.692 25.6753 160.356 25.162C160.029 24.6487 159.521 24.392 158.83 24.392ZM162.648 23.496H163.964L165.588 27.766C165.681 28.018 165.765 28.2607 165.84 28.494C165.924 28.7273 165.998 28.956 166.064 29.18C166.129 29.3947 166.18 29.6047 166.218 29.81H166.274C166.33 29.5767 166.418 29.2733 166.54 28.9C166.661 28.5173 166.787 28.1347 166.918 27.752L168.444 23.496H169.774L166.54 32.036C166.362 32.5027 166.152 32.9087 165.91 33.254C165.676 33.6087 165.387 33.8793 165.042 34.066C164.706 34.262 164.295 34.36 163.81 34.36C163.586 34.36 163.39 34.346 163.222 34.318C163.054 34.2993 162.909 34.276 162.788 34.248V33.268C162.89 33.2867 163.012 33.3053 163.152 33.324C163.301 33.3427 163.455 33.352 163.614 33.352C163.903 33.352 164.15 33.296 164.356 33.184C164.57 33.0813 164.752 32.9273 164.902 32.722C165.051 32.526 165.177 32.2927 165.28 32.022L165.672 31.028L162.648 23.496ZM174.461 23.356C174.601 23.356 174.75 23.3653 174.909 23.384C175.077 23.3933 175.221 23.412 175.343 23.44L175.189 24.574C175.067 24.546 174.932 24.5227 174.783 24.504C174.643 24.4853 174.507 24.476 174.377 24.476C174.087 24.476 173.812 24.5367 173.551 24.658C173.289 24.7793 173.056 24.952 172.851 25.176C172.645 25.3907 172.482 25.652 172.361 25.96C172.249 26.268 172.193 26.6133 172.193 26.996V31H170.961V23.496H171.969L172.109 24.868H172.165C172.323 24.588 172.515 24.336 172.739 24.112C172.963 23.8787 173.219 23.6967 173.509 23.566C173.798 23.426 174.115 23.356 174.461 23.356ZM177.976 23.496V31H176.744V23.496H177.976ZM177.374 20.682C177.56 20.682 177.724 20.7473 177.864 20.878C178.013 20.9993 178.088 21.1953 178.088 21.466C178.088 21.7273 178.013 21.9233 177.864 22.054C177.724 22.1847 177.56 22.25 177.374 22.25C177.168 22.25 176.996 22.1847 176.856 22.054C176.716 21.9233 176.646 21.7273 176.646 21.466C176.646 21.1953 176.716 20.9993 176.856 20.878C176.996 20.7473 177.168 20.682 177.374 20.682ZM183.013 23.356C183.508 23.356 183.951 23.4493 184.343 23.636C184.744 23.8227 185.085 24.1073 185.365 24.49H185.435L185.603 23.496H186.583V31.126C186.583 31.8353 186.462 32.428 186.219 32.904C185.976 33.3893 185.608 33.7533 185.113 33.996C184.618 34.2387 183.988 34.36 183.223 34.36C182.682 34.36 182.182 34.318 181.725 34.234C181.277 34.1593 180.876 34.0427 180.521 33.884V32.75C180.764 32.8713 181.03 32.974 181.319 33.058C181.608 33.1513 181.921 33.2213 182.257 33.268C182.593 33.3147 182.938 33.338 183.293 33.338C183.937 33.338 184.441 33.1467 184.805 32.764C185.178 32.3907 185.365 31.8773 185.365 31.224V30.93C185.365 30.818 185.37 30.6593 185.379 30.454C185.388 30.2393 185.398 30.09 185.407 30.006H185.351C185.09 30.3887 184.763 30.6733 184.371 30.86C183.988 31.0467 183.54 31.14 183.027 31.14C182.056 31.14 181.296 30.7993 180.745 30.118C180.204 29.4367 179.933 28.4847 179.933 27.262C179.933 26.4593 180.054 25.7687 180.297 25.19C180.549 24.602 180.904 24.1493 181.361 23.832C181.818 23.5147 182.369 23.356 183.013 23.356ZM183.181 24.392C182.761 24.392 182.402 24.504 182.103 24.728C181.814 24.952 181.59 25.2787 181.431 25.708C181.282 26.1373 181.207 26.66 181.207 27.276C181.207 28.2 181.375 28.9093 181.711 29.404C182.056 29.8893 182.556 30.132 183.209 30.132C183.592 30.132 183.918 30.0853 184.189 29.992C184.46 29.8893 184.684 29.7353 184.861 29.53C185.038 29.3153 185.169 29.0447 185.253 28.718C185.337 28.3913 185.379 28.004 185.379 27.556V27.262C185.379 26.5807 185.3 26.03 185.141 25.61C184.992 25.19 184.754 24.882 184.427 24.686C184.1 24.49 183.685 24.392 183.181 24.392ZM190.198 23.482C190.198 23.6593 190.189 23.8413 190.17 24.028C190.161 24.2147 190.147 24.3827 190.128 24.532H190.212C190.371 24.2707 190.572 24.056 190.814 23.888C191.057 23.72 191.328 23.594 191.626 23.51C191.925 23.4167 192.233 23.37 192.55 23.37C193.157 23.37 193.661 23.468 194.062 23.664C194.473 23.8507 194.781 24.1447 194.986 24.546C195.192 24.9473 195.294 25.47 195.294 26.114V31H194.076V26.198C194.076 25.5913 193.941 25.1387 193.67 24.84C193.4 24.5413 192.975 24.392 192.396 24.392C191.836 24.392 191.398 24.4993 191.08 24.714C190.763 24.9193 190.534 25.2273 190.394 25.638C190.264 26.0393 190.198 26.534 190.198 27.122V31H188.966V20.36H190.198V23.482ZM200.127 30.132C200.313 30.132 200.505 30.118 200.701 30.09C200.897 30.0527 201.055 30.0153 201.177 29.978V30.916C201.046 30.9813 200.859 31.0327 200.617 31.07C200.374 31.1167 200.141 31.14 199.917 31.14C199.525 31.14 199.161 31.0747 198.825 30.944C198.498 30.804 198.232 30.566 198.027 30.23C197.821 29.894 197.719 29.4227 197.719 28.816V24.448H196.655V23.86L197.733 23.37L198.223 21.774H198.951V23.496H201.121V24.448H198.951V28.788C198.951 29.2453 199.058 29.586 199.273 29.81C199.497 30.0247 199.781 30.132 200.127 30.132ZM211.16 29.138C210.236 29.138 209.545 28.8533 209.088 28.284C208.631 27.7053 208.402 26.9447 208.402 26.002C208.402 25.3953 208.509 24.8587 208.724 24.392C208.939 23.916 209.256 23.5473 209.676 23.286C210.096 23.0153 210.609 22.88 211.216 22.88C211.505 22.88 211.799 22.9173 212.098 22.992C212.397 23.0667 212.677 23.1693 212.938 23.3L212.532 24.154C212.299 24.0327 212.07 23.944 211.846 23.888C211.631 23.8227 211.426 23.79 211.23 23.79C210.679 23.79 210.25 23.986 209.942 24.378C209.643 24.77 209.494 25.3113 209.494 26.002C209.494 26.478 209.55 26.884 209.662 27.22C209.783 27.5467 209.97 27.7987 210.222 27.976C210.474 28.144 210.805 28.228 211.216 28.228C211.431 28.228 211.669 28.2 211.93 28.144C212.201 28.0787 212.453 27.9993 212.686 27.906V28.802C212.462 28.8953 212.233 28.9747 212 29.04C211.767 29.1053 211.487 29.138 211.16 29.138ZM210.95 31.14C210.203 31.14 209.517 31.014 208.892 30.762C208.267 30.51 207.721 30.1553 207.254 29.698C206.797 29.2313 206.442 28.6853 206.19 28.06C205.938 27.4347 205.812 26.7487 205.812 26.002C205.812 25.2553 205.938 24.5693 206.19 23.944C206.442 23.3187 206.797 22.7773 207.254 22.32C207.721 21.8533 208.267 21.494 208.892 21.242C209.517 20.99 210.203 20.864 210.95 20.864C211.659 20.864 212.322 20.99 212.938 21.242C213.563 21.494 214.109 21.8533 214.576 22.32C215.052 22.7773 215.421 23.3187 215.682 23.944C215.953 24.5693 216.088 25.2553 216.088 26.002C216.088 26.7487 215.962 27.4347 215.71 28.06C215.458 28.6853 215.099 29.2313 214.632 29.698C214.175 30.1553 213.633 30.51 213.008 30.762C212.383 31.014 211.697 31.14 210.95 31.14ZM210.95 30.398C211.547 30.398 212.107 30.2907 212.63 30.076C213.153 29.8613 213.615 29.558 214.016 29.166C214.417 28.7647 214.73 28.298 214.954 27.766C215.178 27.234 215.29 26.646 215.29 26.002C215.29 25.3953 215.183 24.826 214.968 24.294C214.753 23.762 214.45 23.2953 214.058 22.894C213.675 22.4927 213.218 22.18 212.686 21.956C212.163 21.7227 211.585 21.606 210.95 21.606C210.315 21.606 209.732 21.7133 209.2 21.928C208.668 22.1427 208.206 22.4507 207.814 22.852C207.431 23.244 207.133 23.706 206.918 24.238C206.703 24.77 206.596 25.358 206.596 26.002C206.596 26.6087 206.703 27.178 206.918 27.71C207.133 28.242 207.431 28.7087 207.814 29.11C208.206 29.5113 208.668 29.8287 209.2 30.062C209.732 30.286 210.315 30.398 210.95 30.398ZM227.691 31H221.083V29.978L223.701 27.332C224.205 26.828 224.63 26.38 224.975 25.988C225.32 25.596 225.582 25.2133 225.759 24.84C225.936 24.4573 226.025 24.042 226.025 23.594C226.025 23.0433 225.862 22.628 225.535 22.348C225.208 22.0587 224.784 21.914 224.261 21.914C223.776 21.914 223.346 21.998 222.973 22.166C222.609 22.334 222.236 22.5673 221.853 22.866L221.195 22.04C221.456 21.816 221.741 21.6153 222.049 21.438C222.366 21.2607 222.707 21.1207 223.071 21.018C223.444 20.9153 223.841 20.864 224.261 20.864C224.886 20.864 225.423 20.9713 225.871 21.186C226.319 21.4007 226.664 21.7087 226.907 22.11C227.159 22.502 227.285 22.9733 227.285 23.524C227.285 23.916 227.224 24.2893 227.103 24.644C226.982 24.9893 226.809 25.33 226.585 25.666C226.361 26.002 226.09 26.3427 225.773 26.688C225.456 27.0333 225.106 27.3927 224.723 27.766L222.637 29.824V29.88H227.691V31ZM235.745 25.988C235.745 26.8 235.684 27.5233 235.563 28.158C235.442 28.7927 235.246 29.334 234.975 29.782C234.714 30.2207 234.368 30.5567 233.939 30.79C233.519 31.0233 233.01 31.14 232.413 31.14C231.666 31.14 231.046 30.9347 230.551 30.524C230.066 30.1133 229.702 29.5253 229.459 28.76C229.226 27.9853 229.109 27.0613 229.109 25.988C229.109 24.9053 229.216 23.9813 229.431 23.216C229.655 22.4507 230.01 21.8673 230.495 21.466C230.98 21.0553 231.62 20.85 232.413 20.85C233.16 20.85 233.78 21.0553 234.275 21.466C234.77 21.8673 235.138 22.4507 235.381 23.216C235.624 23.9813 235.745 24.9053 235.745 25.988ZM230.341 25.988C230.341 26.9027 230.406 27.6633 230.537 28.27C230.677 28.8767 230.896 29.334 231.195 29.642C231.503 29.9407 231.909 30.09 232.413 30.09C232.917 30.09 233.318 29.9407 233.617 29.642C233.925 29.3433 234.149 28.8907 234.289 28.284C234.429 27.668 234.499 26.9027 234.499 25.988C234.499 25.0733 234.429 24.3173 234.289 23.72C234.149 23.1133 233.925 22.6607 233.617 22.362C233.318 22.054 232.917 21.9 232.413 21.9C231.909 21.9 231.503 22.054 231.195 22.362C230.896 22.6607 230.677 23.1133 230.537 23.72C230.406 24.3173 230.341 25.0733 230.341 25.988ZM243.715 31H237.107V29.978L239.725 27.332C240.229 26.828 240.653 26.38 240.999 25.988C241.344 25.596 241.605 25.2133 241.783 24.84C241.96 24.4573 242.049 24.042 242.049 23.594C242.049 23.0433 241.885 22.628 241.559 22.348C241.232 22.0587 240.807 21.914 240.285 21.914C239.799 21.914 239.37 21.998 238.997 22.166C238.633 22.334 238.259 22.5673 237.877 22.866L237.219 22.04C237.48 21.816 237.765 21.6153 238.073 21.438C238.39 21.2607 238.731 21.1207 239.095 21.018C239.468 20.9153 239.865 20.864 240.285 20.864C240.91 20.864 241.447 20.9713 241.895 21.186C242.343 21.4007 242.688 21.7087 242.931 22.11C243.183 22.502 243.309 22.9733 243.309 23.524C243.309 23.916 243.248 24.2893 243.127 24.644C243.005 24.9893 242.833 25.33 242.609 25.666C242.385 26.002 242.114 26.3427 241.797 26.688C241.479 27.0333 241.129 27.3927 240.747 27.766L238.661 29.824V29.88H243.715V31ZM252.174 28.732H250.718V31H249.528V28.732H244.74V27.682L249.444 20.948H250.718V27.626H252.174V28.732ZM249.528 24.476C249.528 24.2333 249.528 24.014 249.528 23.818C249.538 23.6127 249.547 23.4213 249.556 23.244C249.566 23.0667 249.57 22.8987 249.57 22.74C249.58 22.572 249.589 22.4133 249.598 22.264H249.542C249.468 22.4413 249.374 22.6327 249.262 22.838C249.15 23.0433 249.043 23.216 248.94 23.356L245.944 27.626H249.528V24.476ZM253.018 27.794V26.702H256.406V27.794H253.018ZM264.25 31H257.642V29.978L260.26 27.332C260.764 26.828 261.188 26.38 261.534 25.988C261.879 25.596 262.14 25.2133 262.318 24.84C262.495 24.4573 262.584 24.042 262.584 23.594C262.584 23.0433 262.42 22.628 262.094 22.348C261.767 22.0587 261.342 21.914 260.82 21.914C260.334 21.914 259.905 21.998 259.532 22.166C259.168 22.334 258.794 22.5673 258.412 22.866L257.754 22.04C258.015 21.816 258.3 21.6153 258.608 21.438C258.925 21.2607 259.266 21.1207 259.63 21.018C260.003 20.9153 260.4 20.864 260.82 20.864C261.445 20.864 261.982 20.9713 262.43 21.186C262.878 21.4007 263.223 21.7087 263.466 22.11C263.718 22.502 263.844 22.9733 263.844 23.524C263.844 23.916 263.783 24.2893 263.662 24.644C263.54 24.9893 263.368 25.33 263.144 25.666C262.92 26.002 262.649 26.3427 262.332 26.688C262.014 27.0333 261.664 27.3927 261.282 27.766L259.196 29.824V29.88H264.25V31ZM272.303 25.988C272.303 26.8 272.243 27.5233 272.121 28.158C272 28.7927 271.804 29.334 271.533 29.782C271.272 30.2207 270.927 30.5567 270.497 30.79C270.077 31.0233 269.569 31.14 268.971 31.14C268.225 31.14 267.604 30.9347 267.109 30.524C266.624 30.1133 266.26 29.5253 266.017 28.76C265.784 27.9853 265.667 27.0613 265.667 25.988C265.667 24.9053 265.775 23.9813 265.989 23.216C266.213 22.4507 266.568 21.8673 267.053 21.466C267.539 21.0553 268.178 20.85 268.971 20.85C269.718 20.85 270.339 21.0553 270.833 21.466C271.328 21.8673 271.697 22.4507 271.939 23.216C272.182 23.9813 272.303 24.9053 272.303 25.988ZM266.899 25.988C266.899 26.9027 266.965 27.6633 267.095 28.27C267.235 28.8767 267.455 29.334 267.753 29.642C268.061 29.9407 268.467 30.09 268.971 30.09C269.475 30.09 269.877 29.9407 270.175 29.642C270.483 29.3433 270.707 28.8907 270.847 28.284C270.987 27.668 271.057 26.9027 271.057 25.988C271.057 25.0733 270.987 24.3173 270.847 23.72C270.707 23.1133 270.483 22.6607 270.175 22.362C269.877 22.054 269.475 21.9 268.971 21.9C268.467 21.9 268.061 22.054 267.753 22.362C267.455 22.6607 267.235 23.1133 267.095 23.72C266.965 24.3173 266.899 25.0733 266.899 25.988ZM280.273 31H273.665V29.978L276.283 27.332C276.787 26.828 277.212 26.38 277.557 25.988C277.902 25.596 278.164 25.2133 278.341 24.84C278.518 24.4573 278.607 24.042 278.607 23.594C278.607 23.0433 278.444 22.628 278.117 22.348C277.79 22.0587 277.366 21.914 276.843 21.914C276.358 21.914 275.928 21.998 275.555 22.166C275.191 22.334 274.818 22.5673 274.435 22.866L273.777 22.04C274.038 21.816 274.323 21.6153 274.631 21.438C274.948 21.2607 275.289 21.1207 275.653 21.018C276.026 20.9153 276.423 20.864 276.843 20.864C277.468 20.864 278.005 20.9713 278.453 21.186C278.901 21.4007 279.246 21.7087 279.489 22.11C279.741 22.502 279.867 22.9733 279.867 23.524C279.867 23.916 279.806 24.2893 279.685 24.644C279.564 24.9893 279.391 25.33 279.167 25.666C278.943 26.002 278.672 26.3427 278.355 26.688C278.038 27.0333 277.688 27.3927 277.305 27.766L275.219 29.824V29.88H280.273V31ZM284.855 24.868C285.536 24.868 286.129 24.9847 286.633 25.218C287.137 25.4513 287.524 25.7873 287.795 26.226C288.075 26.6553 288.215 27.1827 288.215 27.808C288.215 28.4987 288.066 29.096 287.767 29.6C287.468 30.0947 287.039 30.4773 286.479 30.748C285.928 31.0093 285.261 31.14 284.477 31.14C283.964 31.14 283.478 31.0933 283.021 31C282.573 30.9067 282.195 30.7713 281.887 30.594V29.432C282.223 29.6373 282.629 29.8007 283.105 29.922C283.59 30.034 284.052 30.09 284.491 30.09C284.986 30.09 285.415 30.0153 285.779 29.866C286.152 29.7073 286.442 29.4693 286.647 29.152C286.852 28.8253 286.955 28.4193 286.955 27.934C286.955 27.2807 286.754 26.7813 286.353 26.436C285.952 26.0813 285.317 25.904 284.449 25.904C284.188 25.904 283.889 25.9273 283.553 25.974C283.217 26.0207 282.946 26.0673 282.741 26.114L282.125 25.722L282.503 21.004H287.515V22.124H283.553L283.315 25.022C283.474 24.994 283.688 24.9613 283.959 24.924C284.23 24.8867 284.528 24.868 284.855 24.868ZM301.053 21.004L297.483 31H296.223L292.653 21.004H293.969L296.223 27.416C296.326 27.6867 296.415 27.948 296.489 28.2C296.564 28.452 296.629 28.6947 296.685 28.928C296.751 29.152 296.807 29.376 296.853 29.6C296.9 29.376 296.951 29.1473 297.007 28.914C297.073 28.6807 297.143 28.438 297.217 28.186C297.301 27.934 297.39 27.668 297.483 27.388L299.723 21.004H301.053ZM303.47 23.496V31H302.238V23.496H303.47ZM302.868 20.682C303.055 20.682 303.218 20.7473 303.358 20.878C303.507 20.9993 303.582 21.1953 303.582 21.466C303.582 21.7273 303.507 21.9233 303.358 22.054C303.218 22.1847 303.055 22.25 302.868 22.25C302.663 22.25 302.49 22.1847 302.35 22.054C302.21 21.9233 302.14 21.7273 302.14 21.466C302.14 21.1953 302.21 20.9993 302.35 20.878C302.49 20.7473 302.663 20.682 302.868 20.682ZM310.733 28.928C310.733 29.4133 310.612 29.8193 310.369 30.146C310.127 30.4727 309.781 30.72 309.333 30.888C308.885 31.056 308.353 31.14 307.737 31.14C307.215 31.14 306.762 31.098 306.379 31.014C306.006 30.93 305.675 30.8133 305.385 30.664V29.544C305.684 29.6933 306.043 29.8333 306.463 29.964C306.893 30.0853 307.327 30.146 307.765 30.146C308.391 30.146 308.843 30.048 309.123 29.852C309.403 29.6467 309.543 29.376 309.543 29.04C309.543 28.8533 309.492 28.6853 309.389 28.536C309.287 28.3867 309.1 28.2373 308.829 28.088C308.568 27.9387 308.19 27.7707 307.695 27.584C307.21 27.3973 306.795 27.2107 306.449 27.024C306.104 26.8373 305.838 26.6133 305.651 26.352C305.465 26.0907 305.371 25.7547 305.371 25.344C305.371 24.7093 305.628 24.2193 306.141 23.874C306.664 23.5287 307.345 23.356 308.185 23.356C308.643 23.356 309.067 23.4027 309.459 23.496C309.861 23.58 310.234 23.7013 310.579 23.86L310.159 24.84C309.954 24.7467 309.735 24.6673 309.501 24.602C309.277 24.5273 309.049 24.4713 308.815 24.434C308.582 24.3873 308.344 24.364 308.101 24.364C307.597 24.364 307.21 24.448 306.939 24.616C306.678 24.7747 306.547 24.994 306.547 25.274C306.547 25.4793 306.608 25.6567 306.729 25.806C306.851 25.946 307.051 26.086 307.331 26.226C307.621 26.3567 308.003 26.5153 308.479 26.702C308.955 26.8793 309.361 27.0613 309.697 27.248C310.033 27.4347 310.29 27.6633 310.467 27.934C310.645 28.1953 310.733 28.5267 310.733 28.928ZM315.388 23.37C316.303 23.37 316.98 23.5707 317.418 23.972C317.857 24.3733 318.076 25.0127 318.076 25.89V31H317.18L316.942 29.936H316.886C316.672 30.2067 316.448 30.4353 316.214 30.622C315.99 30.7993 315.729 30.93 315.43 31.014C315.141 31.098 314.786 31.14 314.366 31.14C313.918 31.14 313.512 31.0607 313.148 30.902C312.794 30.7433 312.514 30.5007 312.308 30.174C312.103 29.838 312 29.418 312 28.914C312 28.1673 312.294 27.5933 312.882 27.192C313.47 26.7813 314.376 26.5573 315.598 26.52L316.872 26.478V26.03C316.872 25.4047 316.737 24.9707 316.466 24.728C316.196 24.4853 315.813 24.364 315.318 24.364C314.926 24.364 314.553 24.4247 314.198 24.546C313.844 24.658 313.512 24.7887 313.204 24.938L312.826 24.014C313.153 23.8367 313.54 23.6873 313.988 23.566C314.436 23.4353 314.903 23.37 315.388 23.37ZM315.752 27.374C314.819 27.4113 314.17 27.5607 313.806 27.822C313.452 28.0833 313.274 28.452 313.274 28.928C313.274 29.348 313.4 29.656 313.652 29.852C313.914 30.048 314.245 30.146 314.646 30.146C315.281 30.146 315.808 29.9733 316.228 29.628C316.648 29.2733 316.858 28.732 316.858 28.004V27.332L315.752 27.374ZM320.212 30.244C320.212 29.8987 320.296 29.656 320.464 29.516C320.632 29.376 320.833 29.306 321.066 29.306C321.309 29.306 321.514 29.376 321.682 29.516C321.859 29.656 321.948 29.8987 321.948 30.244C321.948 30.58 321.859 30.8227 321.682 30.972C321.514 31.1213 321.309 31.196 321.066 31.196C320.833 31.196 320.632 31.1213 320.464 30.972C320.296 30.8227 320.212 30.58 320.212 30.244ZM334.217 31L333.013 27.906H329.051L327.861 31H326.587L330.493 20.962H331.627L335.519 31H334.217ZM331.515 23.762C331.487 23.6873 331.44 23.552 331.375 23.356C331.31 23.16 331.244 22.9593 331.179 22.754C331.123 22.5393 331.076 22.376 331.039 22.264C330.992 22.4507 330.941 22.642 330.885 22.838C330.838 23.0247 330.787 23.1973 330.731 23.356C330.684 23.5147 330.642 23.65 330.605 23.762L329.471 26.786H332.635L331.515 23.762ZM337.95 31H336.718V20.36H337.95V31ZM341.56 31H340.328V20.36H341.56V31ZM351.074 23.356C351.214 23.356 351.363 23.3653 351.522 23.384C351.69 23.3933 351.834 23.412 351.956 23.44L351.802 24.574C351.68 24.546 351.545 24.5227 351.396 24.504C351.256 24.4853 351.12 24.476 350.99 24.476C350.7 24.476 350.425 24.5367 350.164 24.658C349.902 24.7793 349.669 24.952 349.464 25.176C349.258 25.3907 349.095 25.652 348.974 25.96C348.862 26.268 348.806 26.6133 348.806 26.996V31H347.574V23.496H348.582L348.722 24.868H348.778C348.936 24.588 349.128 24.336 349.352 24.112C349.576 23.8787 349.832 23.6967 350.122 23.566C350.411 23.426 350.728 23.356 351.074 23.356ZM354.589 23.496V31H353.357V23.496H354.589ZM353.987 20.682C354.174 20.682 354.337 20.7473 354.477 20.878C354.626 20.9993 354.701 21.1953 354.701 21.466C354.701 21.7273 354.626 21.9233 354.477 22.054C354.337 22.1847 354.174 22.25 353.987 22.25C353.782 22.25 353.609 22.1847 353.469 22.054C353.329 21.9233 353.259 21.7273 353.259 21.466C353.259 21.1953 353.329 20.9993 353.469 20.878C353.609 20.7473 353.782 20.682 353.987 20.682ZM359.626 23.356C360.121 23.356 360.564 23.4493 360.956 23.636C361.358 23.8227 361.698 24.1073 361.978 24.49H362.048L362.216 23.496H363.196V31.126C363.196 31.8353 363.075 32.428 362.832 32.904C362.59 33.3893 362.221 33.7533 361.726 33.996C361.232 34.2387 360.602 34.36 359.836 34.36C359.295 34.36 358.796 34.318 358.338 34.234C357.89 34.1593 357.489 34.0427 357.134 33.884V32.75C357.377 32.8713 357.643 32.974 357.932 33.058C358.222 33.1513 358.534 33.2213 358.87 33.268C359.206 33.3147 359.552 33.338 359.906 33.338C360.55 33.338 361.054 33.1467 361.418 32.764C361.792 32.3907 361.978 31.8773 361.978 31.224V30.93C361.978 30.818 361.983 30.6593 361.992 30.454C362.002 30.2393 362.011 30.09 362.02 30.006H361.964C361.703 30.3887 361.376 30.6733 360.984 30.86C360.602 31.0467 360.154 31.14 359.64 31.14C358.67 31.14 357.909 30.7993 357.358 30.118C356.817 29.4367 356.546 28.4847 356.546 27.262C356.546 26.4593 356.668 25.7687 356.91 25.19C357.162 24.602 357.517 24.1493 357.974 23.832C358.432 23.5147 358.982 23.356 359.626 23.356ZM359.794 24.392C359.374 24.392 359.015 24.504 358.716 24.728C358.427 24.952 358.203 25.2787 358.044 25.708C357.895 26.1373 357.82 26.66 357.82 27.276C357.82 28.2 357.988 28.9093 358.324 29.404C358.67 29.8893 359.169 30.132 359.822 30.132C360.205 30.132 360.532 30.0853 360.802 29.992C361.073 29.8893 361.297 29.7353 361.474 29.53C361.652 29.3153 361.782 29.0447 361.866 28.718C361.95 28.3913 361.992 28.004 361.992 27.556V27.262C361.992 26.5807 361.913 26.03 361.754 25.61C361.605 25.19 361.367 24.882 361.04 24.686C360.714 24.49 360.298 24.392 359.794 24.392ZM366.812 23.482C366.812 23.6593 366.802 23.8413 366.784 24.028C366.774 24.2147 366.76 24.3827 366.742 24.532H366.826C366.984 24.2707 367.185 24.056 367.428 23.888C367.67 23.72 367.941 23.594 368.24 23.51C368.538 23.4167 368.846 23.37 369.164 23.37C369.77 23.37 370.274 23.468 370.676 23.664C371.086 23.8507 371.394 24.1447 371.6 24.546C371.805 24.9473 371.908 25.47 371.908 26.114V31H370.69V26.198C370.69 25.5913 370.554 25.1387 370.284 24.84C370.013 24.5413 369.588 24.392 369.01 24.392C368.45 24.392 368.011 24.4993 367.694 24.714C367.376 24.9193 367.148 25.2273 367.008 25.638C366.877 26.0393 366.812 26.534 366.812 27.122V31H365.58V20.36H366.812V23.482ZM376.74 30.132C376.927 30.132 377.118 30.118 377.314 30.09C377.51 30.0527 377.669 30.0153 377.79 29.978V30.916C377.659 30.9813 377.473 31.0327 377.23 31.07C376.987 31.1167 376.754 31.14 376.53 31.14C376.138 31.14 375.774 31.0747 375.438 30.944C375.111 30.804 374.845 30.566 374.64 30.23C374.435 29.894 374.332 29.4227 374.332 28.816V24.448H373.268V23.86L374.346 23.37L374.836 21.774H375.564V23.496H377.734V24.448H375.564V28.788C375.564 29.2453 375.671 29.586 375.886 29.81C376.11 30.0247 376.395 30.132 376.74 30.132ZM384.179 28.928C384.179 29.4133 384.057 29.8193 383.815 30.146C383.572 30.4727 383.227 30.72 382.779 30.888C382.331 31.056 381.799 31.14 381.183 31.14C380.66 31.14 380.207 31.098 379.825 31.014C379.451 30.93 379.12 30.8133 378.831 30.664V29.544C379.129 29.6933 379.489 29.8333 379.909 29.964C380.338 30.0853 380.772 30.146 381.211 30.146C381.836 30.146 382.289 30.048 382.569 29.852C382.849 29.6467 382.989 29.376 382.989 29.04C382.989 28.8533 382.937 28.6853 382.835 28.536C382.732 28.3867 382.545 28.2373 382.275 28.088C382.013 27.9387 381.635 27.7707 381.141 27.584C380.655 27.3973 380.24 27.2107 379.895 27.024C379.549 26.8373 379.283 26.6133 379.097 26.352C378.91 26.0907 378.817 25.7547 378.817 25.344C378.817 24.7093 379.073 24.2193 379.587 23.874C380.109 23.5287 380.791 23.356 381.631 23.356C382.088 23.356 382.513 23.4027 382.905 23.496C383.306 23.58 383.679 23.7013 384.025 23.86L383.605 24.84C383.399 24.7467 383.18 24.6673 382.947 24.602C382.723 24.5273 382.494 24.4713 382.261 24.434C382.027 24.3873 381.789 24.364 381.547 24.364C381.043 24.364 380.655 24.448 380.385 24.616C380.123 24.7747 379.993 24.994 379.993 25.274C379.993 25.4793 380.053 25.6567 380.175 25.806C380.296 25.946 380.497 26.086 380.777 26.226C381.066 26.3567 381.449 26.5153 381.925 26.702C382.401 26.8793 382.807 27.0613 383.143 27.248C383.479 27.4347 383.735 27.6633 383.913 27.934C384.09 28.1953 384.179 28.5267 384.179 28.928ZM393.128 23.356C393.268 23.356 393.418 23.3653 393.576 23.384C393.744 23.3933 393.889 23.412 394.01 23.44L393.856 24.574C393.735 24.546 393.6 24.5227 393.45 24.504C393.31 24.4853 393.175 24.476 393.044 24.476C392.755 24.476 392.48 24.5367 392.218 24.658C391.957 24.7793 391.724 24.952 391.518 25.176C391.313 25.3907 391.15 25.652 391.028 25.96C390.916 26.268 390.86 26.6133 390.86 26.996V31H389.628V23.496H390.636L390.776 24.868H390.832C390.991 24.588 391.182 24.336 391.406 24.112C391.63 23.8787 391.887 23.6967 392.176 23.566C392.466 23.426 392.783 23.356 393.128 23.356ZM398.036 23.356C398.68 23.356 399.231 23.496 399.688 23.776C400.155 24.056 400.51 24.4527 400.752 24.966C401.004 25.47 401.13 26.0627 401.13 26.744V27.486H395.992C396.011 28.3353 396.226 28.984 396.636 29.432C397.056 29.8707 397.64 30.09 398.386 30.09C398.862 30.09 399.282 30.048 399.646 29.964C400.02 29.8707 400.402 29.74 400.794 29.572V30.65C400.412 30.818 400.034 30.9393 399.66 31.014C399.287 31.098 398.844 31.14 398.33 31.14C397.621 31.14 396.991 30.9953 396.44 30.706C395.899 30.4167 395.474 29.9873 395.166 29.418C394.868 28.8393 394.718 28.1347 394.718 27.304C394.718 26.4827 394.854 25.778 395.124 25.19C395.404 24.602 395.792 24.1493 396.286 23.832C396.79 23.5147 397.374 23.356 398.036 23.356ZM398.022 24.364C397.434 24.364 396.968 24.5553 396.622 24.938C396.286 25.3113 396.086 25.834 396.02 26.506H399.842C399.842 26.0767 399.777 25.7033 399.646 25.386C399.516 25.0687 399.315 24.8213 399.044 24.644C398.783 24.4573 398.442 24.364 398.022 24.364ZM407.927 28.928C407.927 29.4133 407.805 29.8193 407.563 30.146C407.32 30.4727 406.975 30.72 406.527 30.888C406.079 31.056 405.547 31.14 404.931 31.14C404.408 31.14 403.955 31.098 403.573 31.014C403.199 30.93 402.868 30.8133 402.579 30.664V29.544C402.877 29.6933 403.237 29.8333 403.657 29.964C404.086 30.0853 404.52 30.146 404.959 30.146C405.584 30.146 406.037 30.048 406.317 29.852C406.597 29.6467 406.737 29.376 406.737 29.04C406.737 28.8533 406.685 28.6853 406.583 28.536C406.48 28.3867 406.293 28.2373 406.023 28.088C405.761 27.9387 405.383 27.7707 404.889 27.584C404.403 27.3973 403.988 27.2107 403.643 27.024C403.297 26.8373 403.031 26.6133 402.845 26.352C402.658 26.0907 402.565 25.7547 402.565 25.344C402.565 24.7093 402.821 24.2193 403.335 23.874C403.857 23.5287 404.539 23.356 405.379 23.356C405.836 23.356 406.261 23.4027 406.653 23.496C407.054 23.58 407.427 23.7013 407.773 23.86L407.353 24.84C407.147 24.7467 406.928 24.6673 406.695 24.602C406.471 24.5273 406.242 24.4713 406.009 24.434C405.775 24.3873 405.537 24.364 405.295 24.364C404.791 24.364 404.403 24.448 404.133 24.616C403.871 24.7747 403.741 24.994 403.741 25.274C403.741 25.4793 403.801 25.6567 403.923 25.806C404.044 25.946 404.245 26.086 404.525 26.226C404.814 26.3567 405.197 26.5153 405.673 26.702C406.149 26.8793 406.555 27.0613 406.891 27.248C407.227 27.4347 407.483 27.6633 407.661 27.934C407.838 28.1953 407.927 28.5267 407.927 28.928ZM412.638 23.356C413.282 23.356 413.832 23.496 414.29 23.776C414.756 24.056 415.111 24.4527 415.354 24.966C415.606 25.47 415.732 26.0627 415.732 26.744V27.486H410.594C410.612 28.3353 410.827 28.984 411.238 29.432C411.658 29.8707 412.241 30.09 412.988 30.09C413.464 30.09 413.884 30.048 414.248 29.964C414.621 29.8707 415.004 29.74 415.396 29.572V30.65C415.013 30.818 414.635 30.9393 414.262 31.014C413.888 31.098 413.445 31.14 412.932 31.14C412.222 31.14 411.592 30.9953 411.042 30.706C410.5 30.4167 410.076 29.9873 409.768 29.418C409.469 28.8393 409.32 28.1347 409.32 27.304C409.32 26.4827 409.455 25.778 409.726 25.19C410.006 24.602 410.393 24.1493 410.888 23.832C411.392 23.5147 411.975 23.356 412.638 23.356ZM412.624 24.364C412.036 24.364 411.569 24.5553 411.224 24.938C410.888 25.3113 410.687 25.834 410.622 26.506H414.444C414.444 26.0767 414.378 25.7033 414.248 25.386C414.117 25.0687 413.916 24.8213 413.646 24.644C413.384 24.4573 413.044 24.364 412.624 24.364ZM421.142 23.356C421.282 23.356 421.431 23.3653 421.59 23.384C421.758 23.3933 421.903 23.412 422.024 23.44L421.87 24.574C421.749 24.546 421.613 24.5227 421.464 24.504C421.324 24.4853 421.189 24.476 421.058 24.476C420.769 24.476 420.493 24.5367 420.232 24.658C419.971 24.7793 419.737 24.952 419.532 25.176C419.327 25.3907 419.163 25.652 419.042 25.96C418.93 26.268 418.874 26.6133 418.874 26.996V31H417.642V23.496H418.65L418.79 24.868H418.846C419.005 24.588 419.196 24.336 419.42 24.112C419.644 23.8787 419.901 23.6967 420.19 23.566C420.479 23.426 420.797 23.356 421.142 23.356ZM425.077 31L422.235 23.496H423.551L425.147 27.92C425.222 28.1253 425.301 28.354 425.385 28.606C425.469 28.858 425.544 29.1007 425.609 29.334C425.675 29.558 425.721 29.7493 425.749 29.908H425.805C425.843 29.7493 425.894 29.5533 425.959 29.32C426.034 29.0867 426.113 28.844 426.197 28.592C426.291 28.34 426.37 28.116 426.435 27.92L428.031 23.496H429.347L426.491 31H425.077ZM433.433 23.356C434.077 23.356 434.627 23.496 435.085 23.776C435.551 24.056 435.906 24.4527 436.149 24.966C436.401 25.47 436.527 26.0627 436.527 26.744V27.486H431.389C431.407 28.3353 431.622 28.984 432.033 29.432C432.453 29.8707 433.036 30.09 433.783 30.09C434.259 30.09 434.679 30.048 435.043 29.964C435.416 29.8707 435.799 29.74 436.191 29.572V30.65C435.808 30.818 435.43 30.9393 435.057 31.014C434.683 31.098 434.24 31.14 433.727 31.14C433.017 31.14 432.387 30.9953 431.837 30.706C431.295 30.4167 430.871 29.9873 430.563 29.418C430.264 28.8393 430.115 28.1347 430.115 27.304C430.115 26.4827 430.25 25.778 430.521 25.19C430.801 24.602 431.188 24.1493 431.683 23.832C432.187 23.5147 432.77 23.356 433.433 23.356ZM433.419 24.364C432.831 24.364 432.364 24.5553 432.019 24.938C431.683 25.3113 431.482 25.834 431.417 26.506H435.239C435.239 26.0767 435.173 25.7033 435.043 25.386C434.912 25.0687 434.711 24.8213 434.441 24.644C434.179 24.4573 433.839 24.364 433.419 24.364ZM441.097 31.14C440.164 31.14 439.417 30.818 438.857 30.174C438.297 29.5207 438.017 28.55 438.017 27.262C438.017 25.974 438.297 25.0033 438.857 24.35C439.426 23.6873 440.178 23.356 441.111 23.356C441.503 23.356 441.844 23.4073 442.133 23.51C442.422 23.6033 442.674 23.734 442.889 23.902C443.104 24.07 443.286 24.2567 443.435 24.462H443.519C443.51 24.3407 443.491 24.1633 443.463 23.93C443.444 23.6873 443.435 23.496 443.435 23.356V20.36H444.667V31H443.673L443.491 29.992H443.435C443.286 30.2067 443.104 30.4027 442.889 30.58C442.674 30.748 442.418 30.8833 442.119 30.986C441.83 31.0887 441.489 31.14 441.097 31.14ZM441.293 30.118C442.086 30.118 442.642 29.9033 442.959 29.474C443.286 29.0353 443.449 28.3773 443.449 27.5V27.276C443.449 26.3427 443.295 25.6287 442.987 25.134C442.679 24.63 442.11 24.378 441.279 24.378C440.616 24.378 440.117 24.644 439.781 25.176C439.454 25.6987 439.291 26.4033 439.291 27.29C439.291 28.186 439.454 28.8813 439.781 29.376C440.117 29.8707 440.621 30.118 441.293 30.118ZM446.868 30.244C446.868 29.8987 446.952 29.656 447.12 29.516C447.288 29.376 447.489 29.306 447.722 29.306C447.965 29.306 448.17 29.376 448.338 29.516C448.516 29.656 448.604 29.8987 448.604 30.244C448.604 30.58 448.516 30.8227 448.338 30.972C448.17 31.1213 447.965 31.196 447.722 31.196C447.489 31.196 447.288 31.1213 447.12 30.972C446.952 30.8227 446.868 30.58 446.868 30.244Z" fill="#4A4A4A"/>
<path d="M1343.6 22.166C1343.11 22.166 1342.66 22.2547 1342.27 22.432C1341.88 22.6 1341.54 22.852 1341.26 23.188C1340.99 23.524 1340.78 23.93 1340.63 24.406C1340.49 24.882 1340.42 25.4187 1340.42 26.016C1340.42 26.8 1340.54 27.4813 1340.77 28.06C1341.01 28.6293 1341.36 29.068 1341.82 29.376C1342.29 29.684 1342.88 29.838 1343.59 29.838C1344.02 29.838 1344.43 29.8007 1344.82 29.726C1345.22 29.642 1345.63 29.5347 1346.04 29.404V30.706C1345.64 30.8553 1345.24 30.9627 1344.83 31.028C1344.42 31.1027 1343.95 31.14 1343.4 31.14C1342.39 31.14 1341.54 30.93 1340.86 30.51C1340.18 30.09 1339.68 29.4927 1339.34 28.718C1339.01 27.9433 1338.84 27.038 1338.84 26.002C1338.84 25.246 1338.94 24.5553 1339.15 23.93C1339.36 23.2953 1339.67 22.7493 1340.07 22.292C1340.47 21.8347 1340.97 21.4847 1341.56 21.242C1342.15 20.99 1342.84 20.864 1343.61 20.864C1344.12 20.864 1344.61 20.92 1345.1 21.032C1345.58 21.1347 1346.02 21.284 1346.41 21.48L1345.85 22.74C1345.53 22.5907 1345.17 22.46 1344.79 22.348C1344.42 22.2267 1344.02 22.166 1343.6 22.166ZM1354.67 27.22C1354.67 27.8453 1354.59 28.4007 1354.42 28.886C1354.25 29.3713 1354.01 29.782 1353.71 30.118C1353.4 30.454 1353.02 30.7107 1352.59 30.888C1352.15 31.056 1351.65 31.14 1351.1 31.14C1350.6 31.14 1350.13 31.056 1349.7 30.888C1349.27 30.7107 1348.9 30.454 1348.58 30.118C1348.27 29.782 1348.03 29.3713 1347.85 28.886C1347.68 28.4007 1347.59 27.8407 1347.59 27.206C1347.59 26.3753 1347.73 25.6707 1348.01 25.092C1348.3 24.5133 1348.71 24.0747 1349.24 23.776C1349.78 23.468 1350.42 23.314 1351.14 23.314C1351.83 23.314 1352.44 23.468 1352.96 23.776C1353.5 24.0747 1353.91 24.5133 1354.21 25.092C1354.52 25.6707 1354.67 26.38 1354.67 27.22ZM1349.11 27.22C1349.11 27.78 1349.18 28.2653 1349.32 28.676C1349.46 29.0773 1349.68 29.3853 1349.98 29.6C1350.28 29.8147 1350.66 29.922 1351.13 29.922C1351.6 29.922 1351.98 29.8147 1352.28 29.6C1352.58 29.3853 1352.8 29.0773 1352.94 28.676C1353.08 28.2653 1353.15 27.78 1353.15 27.22C1353.15 26.6413 1353.07 26.156 1352.92 25.764C1352.78 25.372 1352.56 25.0733 1352.26 24.868C1351.97 24.6533 1351.59 24.546 1351.12 24.546C1350.42 24.546 1349.91 24.7793 1349.59 25.246C1349.27 25.7127 1349.11 26.3707 1349.11 27.22ZM1360.37 23.314C1361.25 23.314 1361.92 23.5333 1362.39 23.972C1362.86 24.4107 1363.09 25.1153 1363.09 26.086V31H1361.62V26.296C1361.62 25.708 1361.49 25.2693 1361.24 24.98C1361 24.6813 1360.61 24.532 1360.07 24.532C1359.3 24.532 1358.77 24.7607 1358.47 25.218C1358.18 25.6753 1358.04 26.3333 1358.04 27.192V31H1356.55V23.454H1357.73L1357.94 24.462H1358.02C1358.19 24.2007 1358.4 23.986 1358.64 23.818C1358.88 23.65 1359.15 23.524 1359.45 23.44C1359.75 23.356 1360.06 23.314 1360.37 23.314ZM1368.09 29.936C1368.28 29.936 1368.48 29.9173 1368.69 29.88C1368.89 29.8427 1369.07 29.8007 1369.22 29.754V30.874C1369.06 30.9487 1368.85 31.0093 1368.58 31.056C1368.31 31.112 1368.04 31.14 1367.76 31.14C1367.35 31.14 1366.98 31.07 1366.63 30.93C1366.29 30.79 1366.02 30.5473 1365.82 30.202C1365.61 29.8567 1365.51 29.376 1365.51 28.76V24.588H1364.46V23.916L1365.57 23.356L1366.08 21.76H1366.99V23.454H1369.15V24.588H1366.99V28.732C1366.99 29.1427 1367.09 29.446 1367.29 29.642C1367.49 29.838 1367.76 29.936 1368.09 29.936ZM1373.66 23.314C1374.61 23.314 1375.32 23.524 1375.78 23.944C1376.25 24.3547 1376.48 25.0033 1376.48 25.89V31H1375.43L1375.14 29.95H1375.08C1374.87 30.2207 1374.65 30.4447 1374.41 30.622C1374.19 30.7993 1373.93 30.93 1373.63 31.014C1373.34 31.098 1372.98 31.14 1372.56 31.14C1372.12 31.14 1371.71 31.0607 1371.35 30.902C1370.99 30.734 1370.71 30.482 1370.51 30.146C1370.3 29.8007 1370.2 29.3713 1370.2 28.858C1370.2 28.0927 1370.49 27.5093 1371.07 27.108C1371.65 26.7067 1372.55 26.4873 1373.74 26.45L1375.03 26.408V25.988C1375.03 25.428 1374.9 25.036 1374.65 24.812C1374.4 24.588 1374.04 24.476 1373.59 24.476C1373.19 24.476 1372.82 24.532 1372.47 24.644C1372.11 24.756 1371.78 24.8913 1371.46 25.05L1370.98 23.972C1371.34 23.7853 1371.74 23.6313 1372.2 23.51C1372.67 23.3793 1373.15 23.314 1373.66 23.314ZM1374.01 27.402C1373.15 27.4393 1372.55 27.584 1372.21 27.836C1371.89 28.0787 1371.72 28.424 1371.72 28.872C1371.72 29.264 1371.84 29.5487 1372.07 29.726C1372.32 29.9033 1372.62 29.992 1372.98 29.992C1373.57 29.992 1374.06 29.8287 1374.44 29.502C1374.82 29.1753 1375.01 28.6853 1375.01 28.032V27.374L1374.01 27.402ZM1381.81 31.14C1381.12 31.14 1380.51 31.0047 1379.99 30.734C1379.46 30.4633 1379.06 30.0433 1378.77 29.474C1378.48 28.8953 1378.34 28.1627 1378.34 27.276C1378.34 26.3427 1378.49 25.5867 1378.8 25.008C1379.11 24.4293 1379.54 24.0047 1380.07 23.734C1380.61 23.454 1381.23 23.314 1381.92 23.314C1382.34 23.314 1382.73 23.3607 1383.1 23.454C1383.47 23.538 1383.78 23.636 1384.02 23.748L1383.57 24.952C1383.31 24.8493 1383.03 24.7607 1382.73 24.686C1382.44 24.6113 1382.17 24.574 1381.91 24.574C1381.44 24.574 1381.05 24.6767 1380.74 24.882C1380.44 25.078 1380.22 25.3767 1380.07 25.778C1379.93 26.17 1379.86 26.6647 1379.86 27.262C1379.86 27.8313 1379.94 28.312 1380.09 28.704C1380.23 29.096 1380.45 29.3947 1380.74 29.6C1381.04 29.796 1381.41 29.894 1381.85 29.894C1382.27 29.894 1382.64 29.8473 1382.96 29.754C1383.27 29.6607 1383.57 29.5393 1383.85 29.39V30.678C1383.58 30.8367 1383.29 30.9533 1382.97 31.028C1382.65 31.1027 1382.26 31.14 1381.81 31.14ZM1388.35 29.936C1388.54 29.936 1388.75 29.9173 1388.95 29.88C1389.16 29.8427 1389.33 29.8007 1389.48 29.754V30.874C1389.32 30.9487 1389.11 31.0093 1388.84 31.056C1388.57 31.112 1388.3 31.14 1388.03 31.14C1387.62 31.14 1387.24 31.07 1386.89 30.93C1386.56 30.79 1386.29 30.5473 1386.08 30.202C1385.88 29.8567 1385.77 29.376 1385.77 28.76V24.588H1384.72V23.916L1385.83 23.356L1386.35 21.76H1387.26V23.454H1389.41V24.588H1387.26V28.732C1387.26 29.1427 1387.35 29.446 1387.55 29.642C1387.76 29.838 1388.02 29.936 1388.35 29.936ZM1401.12 23.454V31H1399.93L1399.72 30.006H1399.65C1399.5 30.2673 1399.29 30.482 1399.04 30.65C1398.79 30.818 1398.51 30.9393 1398.21 31.014C1397.91 31.098 1397.61 31.14 1397.29 31.14C1396.7 31.14 1396.2 31.0467 1395.79 30.86C1395.39 30.664 1395.08 30.3653 1394.87 29.964C1394.66 29.5533 1394.56 29.0307 1394.56 28.396V23.454H1396.06V28.172C1396.06 28.76 1396.18 29.1987 1396.42 29.488C1396.67 29.7773 1397.06 29.922 1397.58 29.922C1398.11 29.922 1398.52 29.8193 1398.81 29.614C1399.11 29.4087 1399.32 29.11 1399.44 28.718C1399.58 28.3167 1399.64 27.836 1399.64 27.276V23.454H1401.12ZM1408.46 28.872C1408.46 29.3667 1408.34 29.782 1408.1 30.118C1407.85 30.454 1407.5 30.7107 1407.05 30.888C1406.59 31.056 1406.04 31.14 1405.39 31.14C1404.86 31.14 1404.4 31.098 1404.02 31.014C1403.65 30.9393 1403.3 30.8273 1402.99 30.678V29.376C1403.32 29.5347 1403.71 29.6793 1404.15 29.81C1404.59 29.9313 1405.02 29.992 1405.44 29.992C1406 29.992 1406.4 29.9033 1406.64 29.726C1406.89 29.5487 1407.02 29.3107 1407.02 29.012C1407.02 28.844 1406.97 28.6947 1406.88 28.564C1406.78 28.424 1406.61 28.284 1406.35 28.144C1406.09 27.9947 1405.72 27.8267 1405.23 27.64C1404.75 27.444 1404.34 27.2527 1404.01 27.066C1403.67 26.87 1403.41 26.6413 1403.24 26.38C1403.06 26.1093 1402.97 25.764 1402.97 25.344C1402.97 24.6907 1403.23 24.1913 1403.76 23.846C1404.29 23.4913 1404.99 23.314 1405.86 23.314C1406.31 23.314 1406.74 23.3607 1407.14 23.454C1407.55 23.538 1407.95 23.6687 1408.33 23.846L1407.84 24.98C1407.63 24.8773 1407.4 24.7933 1407.17 24.728C1406.95 24.6533 1406.72 24.5927 1406.49 24.546C1406.26 24.4993 1406.03 24.476 1405.79 24.476C1405.34 24.476 1405 24.546 1404.76 24.686C1404.53 24.826 1404.41 25.022 1404.41 25.274C1404.41 25.4513 1404.46 25.6053 1404.57 25.736C1404.68 25.8667 1404.87 25.9973 1405.14 26.128C1405.41 26.2587 1405.78 26.4173 1406.25 26.604C1406.71 26.7813 1407.11 26.9633 1407.44 27.15C1407.77 27.3367 1408.03 27.5653 1408.19 27.836C1408.37 28.1067 1408.46 28.452 1408.46 28.872Z" fill="#1434CB"/>
<path d="M1338 32.75H1409.06V33.45H1338V32.75Z" fill="#1434CB"/>
<path d="M1430.13 21.004C1431.44 21.004 1432.39 21.27 1432.99 21.802C1433.58 22.3247 1433.88 23.0573 1433.88 24C1433.88 24.42 1433.81 24.8213 1433.67 25.204C1433.54 25.5867 1433.32 25.932 1433.01 26.24C1432.71 26.5387 1432.3 26.7767 1431.78 26.954C1431.28 27.122 1430.66 27.206 1429.92 27.206H1428.84V31H1427.33V21.004H1430.13ZM1430.02 22.278H1428.84V25.932H1429.75C1430.32 25.932 1430.8 25.8713 1431.18 25.75C1431.56 25.6193 1431.85 25.4187 1432.03 25.148C1432.23 24.868 1432.33 24.504 1432.33 24.056C1432.33 23.4587 1432.14 23.0153 1431.77 22.726C1431.4 22.4273 1430.82 22.278 1430.02 22.278ZM1439.46 23.314C1439.59 23.314 1439.73 23.3233 1439.89 23.342C1440.05 23.3513 1440.18 23.3653 1440.28 23.384L1440.13 24.77C1440.03 24.742 1439.91 24.7187 1439.77 24.7C1439.63 24.6813 1439.5 24.672 1439.37 24.672C1439.09 24.672 1438.82 24.728 1438.56 24.84C1438.31 24.9427 1438.08 25.0967 1437.88 25.302C1437.67 25.498 1437.51 25.7407 1437.39 26.03C1437.27 26.3193 1437.22 26.6507 1437.22 27.024V31H1435.73V23.454H1436.91L1437.11 24.798H1437.16C1437.32 24.5273 1437.51 24.28 1437.74 24.056C1437.96 23.832 1438.22 23.6547 1438.51 23.524C1438.8 23.384 1439.11 23.314 1439.46 23.314ZM1443.17 23.454V31H1441.68V23.454H1443.17ZM1442.44 20.584C1442.66 20.584 1442.86 20.6493 1443.03 20.78C1443.19 20.9107 1443.28 21.13 1443.28 21.438C1443.28 21.7367 1443.19 21.956 1443.03 22.096C1442.86 22.2267 1442.66 22.292 1442.44 22.292C1442.19 22.292 1441.99 22.2267 1441.82 22.096C1441.66 21.956 1441.58 21.7367 1441.58 21.438C1441.58 21.13 1441.66 20.9107 1441.82 20.78C1441.99 20.6493 1442.19 20.584 1442.44 20.584ZM1447.19 31L1444.33 23.454H1445.9L1447.47 27.864C1447.54 28.0507 1447.6 28.2607 1447.67 28.494C1447.74 28.7273 1447.81 28.9513 1447.86 29.166C1447.92 29.3807 1447.96 29.5673 1447.97 29.726H1448.03C1448.06 29.5673 1448.1 29.3807 1448.16 29.166C1448.22 28.942 1448.29 28.718 1448.37 28.494C1448.44 28.2607 1448.51 28.0507 1448.56 27.864L1450.13 23.454H1451.7L1448.83 31H1447.19ZM1455.79 23.314C1456.74 23.314 1457.45 23.524 1457.92 23.944C1458.39 24.3547 1458.62 25.0033 1458.62 25.89V31H1457.57L1457.28 29.95H1457.22C1457 30.2207 1456.78 30.4447 1456.55 30.622C1456.32 30.7993 1456.06 30.93 1455.76 31.014C1455.47 31.098 1455.12 31.14 1454.7 31.14C1454.25 31.14 1453.85 31.0607 1453.48 30.902C1453.13 30.734 1452.85 30.482 1452.64 30.146C1452.44 29.8007 1452.33 29.3713 1452.33 28.858C1452.33 28.0927 1452.62 27.5093 1453.2 27.108C1453.79 26.7067 1454.68 26.4873 1455.88 26.45L1457.16 26.408V25.988C1457.16 25.428 1457.04 25.036 1456.79 24.812C1456.53 24.588 1456.18 24.476 1455.72 24.476C1455.33 24.476 1454.96 24.532 1454.6 24.644C1454.25 24.756 1453.91 24.8913 1453.59 25.05L1453.12 23.972C1453.47 23.7853 1453.88 23.6313 1454.34 23.51C1454.8 23.3793 1455.29 23.314 1455.79 23.314ZM1456.14 27.402C1455.28 27.4393 1454.69 27.584 1454.35 27.836C1454.02 28.0787 1453.86 28.424 1453.86 28.872C1453.86 29.264 1453.98 29.5487 1454.21 29.726C1454.45 29.9033 1454.76 29.992 1455.12 29.992C1455.71 29.992 1456.19 29.8287 1456.58 29.502C1456.96 29.1753 1457.15 28.6853 1457.15 28.032V27.374L1456.14 27.402ZM1463.94 31.14C1463.25 31.14 1462.64 31.0047 1462.12 30.734C1461.6 30.4633 1461.19 30.0433 1460.9 29.474C1460.61 28.8953 1460.47 28.1627 1460.47 27.276C1460.47 26.3427 1460.62 25.5867 1460.93 25.008C1461.25 24.4293 1461.67 24.0047 1462.21 23.734C1462.75 23.454 1463.36 23.314 1464.05 23.314C1464.47 23.314 1464.87 23.3607 1465.23 23.454C1465.6 23.538 1465.91 23.636 1466.15 23.748L1465.71 24.952C1465.44 24.8493 1465.16 24.7607 1464.87 24.686C1464.58 24.6113 1464.3 24.574 1464.04 24.574C1463.57 24.574 1463.19 24.6767 1462.88 24.882C1462.58 25.078 1462.36 25.3767 1462.21 25.778C1462.07 26.17 1462 26.6647 1462 27.262C1462 27.8313 1462.07 28.312 1462.22 28.704C1462.37 29.096 1462.59 29.3947 1462.88 29.6C1463.18 29.796 1463.55 29.894 1463.98 29.894C1464.4 29.894 1464.77 29.8473 1465.09 29.754C1465.41 29.6607 1465.71 29.5393 1465.99 29.39V30.678C1465.72 30.8367 1465.42 30.9533 1465.1 31.028C1464.79 31.1027 1464.4 31.14 1463.94 31.14ZM1466.62 23.454H1468.22L1469.78 27.738C1469.87 27.9527 1469.94 28.1627 1470.01 28.368C1470.07 28.5733 1470.13 28.7787 1470.18 28.984C1470.23 29.18 1470.27 29.376 1470.3 29.572H1470.36C1470.4 29.3293 1470.48 29.0447 1470.58 28.718C1470.68 28.382 1470.79 28.0507 1470.9 27.724L1472.39 23.454H1473.98L1470.75 32.022C1470.57 32.5073 1470.35 32.9227 1470.09 33.268C1469.83 33.6227 1469.52 33.8933 1469.15 34.08C1468.8 34.2667 1468.38 34.36 1467.89 34.36C1467.66 34.36 1467.46 34.346 1467.29 34.318C1467.12 34.2993 1466.98 34.276 1466.86 34.248V33.072C1466.96 33.0907 1467.08 33.1093 1467.22 33.128C1467.37 33.1467 1467.52 33.156 1467.68 33.156C1467.97 33.156 1468.22 33.1 1468.43 32.988C1468.64 32.876 1468.82 32.7173 1468.96 32.512C1469.11 32.3067 1469.23 32.0733 1469.34 31.812L1469.64 31L1466.62 23.454Z" fill="#1434CB"/>
<path d="M1426 32.75H1473.98V33.45H1426V32.75Z" fill="#1434CB"/>
<path d="M1494.69 31H1493.18V22.306H1490.18V21.004H1497.69V22.306H1494.69V31ZM1501.03 23.314C1501.7 23.314 1502.27 23.454 1502.74 23.734C1503.22 24.0047 1503.58 24.3967 1503.83 24.91C1504.1 25.4233 1504.23 26.03 1504.23 26.73V27.542H1499.16C1499.18 28.3167 1499.38 28.9093 1499.76 29.32C1500.15 29.7307 1500.7 29.936 1501.4 29.936C1501.88 29.936 1502.31 29.894 1502.69 29.81C1503.07 29.7167 1503.46 29.5813 1503.86 29.404V30.636C1503.49 30.804 1503.11 30.93 1502.71 31.014C1502.33 31.098 1501.87 31.14 1501.34 31.14C1500.61 31.14 1499.97 30.9953 1499.41 30.706C1498.85 30.4167 1498.41 29.9873 1498.09 29.418C1497.79 28.8393 1497.63 28.13 1497.63 27.29C1497.63 26.4407 1497.77 25.722 1498.05 25.134C1498.34 24.546 1498.74 24.098 1499.24 23.79C1499.76 23.4727 1500.35 23.314 1501.03 23.314ZM1501.03 24.462C1500.5 24.462 1500.07 24.6347 1499.75 24.98C1499.43 25.3253 1499.24 25.8153 1499.19 26.45H1502.74C1502.74 26.058 1502.68 25.7127 1502.56 25.414C1502.44 25.1153 1502.25 24.882 1502 24.714C1501.75 24.546 1501.43 24.462 1501.03 24.462ZM1509.8 23.314C1509.93 23.314 1510.08 23.3233 1510.24 23.342C1510.39 23.3513 1510.53 23.3653 1510.63 23.384L1510.47 24.77C1510.37 24.742 1510.25 24.7187 1510.11 24.7C1509.97 24.6813 1509.84 24.672 1509.72 24.672C1509.44 24.672 1509.17 24.728 1508.91 24.84C1508.65 24.9427 1508.43 25.0967 1508.22 25.302C1508.01 25.498 1507.85 25.7407 1507.73 26.03C1507.62 26.3193 1507.56 26.6507 1507.56 27.024V31H1506.08V23.454H1507.25L1507.45 24.798H1507.51C1507.66 24.5273 1507.86 24.28 1508.08 24.056C1508.3 23.832 1508.56 23.6547 1508.85 23.524C1509.14 23.384 1509.46 23.314 1509.8 23.314ZM1520.48 23.314C1521.33 23.314 1521.97 23.5333 1522.4 23.972C1522.83 24.4107 1523.04 25.1153 1523.04 26.086V31H1521.56V26.282C1521.56 25.7033 1521.44 25.2693 1521.21 24.98C1520.99 24.6813 1520.63 24.532 1520.15 24.532C1519.47 24.532 1518.99 24.742 1518.7 25.162C1518.41 25.5727 1518.27 26.17 1518.27 26.954V31H1516.8V26.282C1516.8 25.8993 1516.74 25.5773 1516.63 25.316C1516.53 25.0547 1516.37 24.8587 1516.17 24.728C1515.96 24.5973 1515.7 24.532 1515.37 24.532C1514.9 24.532 1514.54 24.6347 1514.27 24.84C1513.99 25.0453 1513.8 25.3487 1513.68 25.75C1513.57 26.142 1513.51 26.6227 1513.51 27.192V31H1512.03V23.454H1513.2L1513.41 24.462H1513.5C1513.65 24.2007 1513.85 23.986 1514.07 23.818C1514.3 23.65 1514.56 23.524 1514.84 23.44C1515.12 23.356 1515.41 23.314 1515.71 23.314C1516.28 23.314 1516.76 23.4167 1517.15 23.622C1517.54 23.818 1517.83 24.1213 1518 24.532H1518.12C1518.36 24.112 1518.69 23.804 1519.12 23.608C1519.55 23.412 1520.01 23.314 1520.48 23.314ZM1530.33 28.872C1530.33 29.3667 1530.21 29.782 1529.96 30.118C1529.72 30.454 1529.37 30.7107 1528.91 30.888C1528.46 31.056 1527.9 31.14 1527.26 31.14C1526.73 31.14 1526.27 31.098 1525.89 31.014C1525.52 30.9393 1525.17 30.8273 1524.85 30.678V29.376C1525.19 29.5347 1525.58 29.6793 1526.01 29.81C1526.45 29.9313 1526.88 29.992 1527.3 29.992C1527.86 29.992 1528.26 29.9033 1528.51 29.726C1528.76 29.5487 1528.88 29.3107 1528.88 29.012C1528.88 28.844 1528.84 28.6947 1528.74 28.564C1528.65 28.424 1528.47 28.284 1528.21 28.144C1527.96 27.9947 1527.59 27.8267 1527.09 27.64C1526.62 27.444 1526.21 27.2527 1525.87 27.066C1525.54 26.87 1525.28 26.6413 1525.1 26.38C1524.93 26.1093 1524.84 25.764 1524.84 25.344C1524.84 24.6907 1525.1 24.1913 1525.62 23.846C1526.15 23.4913 1526.85 23.314 1527.72 23.314C1528.18 23.314 1528.61 23.3607 1529.01 23.454C1529.42 23.538 1529.82 23.6687 1530.2 23.846L1529.71 24.98C1529.5 24.8773 1529.27 24.7933 1529.04 24.728C1528.81 24.6533 1528.59 24.5927 1528.35 24.546C1528.13 24.4993 1527.9 24.476 1527.65 24.476C1527.2 24.476 1526.86 24.546 1526.63 24.686C1526.4 24.826 1526.28 25.022 1526.28 25.274C1526.28 25.4513 1526.33 25.6053 1526.43 25.736C1526.55 25.8667 1526.74 25.9973 1527.01 26.128C1527.28 26.2587 1527.65 26.4173 1528.11 26.604C1528.58 26.7813 1528.98 26.9633 1529.3 27.15C1529.64 27.3367 1529.89 27.5653 1530.06 27.836C1530.24 28.1067 1530.33 28.452 1530.33 28.872ZM1542.38 27.22C1542.38 27.8453 1542.3 28.4007 1542.13 28.886C1541.96 29.3713 1541.72 29.782 1541.42 30.118C1541.11 30.454 1540.73 30.7107 1540.3 30.888C1539.86 31.056 1539.36 31.14 1538.81 31.14C1538.31 31.14 1537.84 31.056 1537.41 30.888C1536.98 30.7107 1536.61 30.454 1536.29 30.118C1535.98 29.782 1535.74 29.3713 1535.56 28.886C1535.39 28.4007 1535.3 27.8407 1535.3 27.206C1535.3 26.3753 1535.44 25.6707 1535.72 25.092C1536.01 24.5133 1536.42 24.0747 1536.95 23.776C1537.49 23.468 1538.13 23.314 1538.85 23.314C1539.54 23.314 1540.15 23.468 1540.67 23.776C1541.21 24.0747 1541.62 24.5133 1541.92 25.092C1542.23 25.6707 1542.38 26.38 1542.38 27.22ZM1536.82 27.22C1536.82 27.78 1536.89 28.2653 1537.03 28.676C1537.17 29.0773 1537.39 29.3853 1537.69 29.6C1537.99 29.8147 1538.37 29.922 1538.84 29.922C1539.31 29.922 1539.69 29.8147 1539.99 29.6C1540.29 29.3853 1540.51 29.0773 1540.65 28.676C1540.79 28.2653 1540.86 27.78 1540.86 27.22C1540.86 26.6413 1540.78 26.156 1540.63 25.764C1540.49 25.372 1540.27 25.0733 1539.97 24.868C1539.68 24.6533 1539.3 24.546 1538.83 24.546C1538.13 24.546 1537.62 24.7793 1537.3 25.246C1536.98 25.7127 1536.82 26.3707 1536.82 27.22ZM1547.95 24.588H1546.08V31H1544.6V24.588H1543.33V23.888L1544.6 23.426V22.95C1544.6 22.306 1544.7 21.7927 1544.89 21.41C1545.1 21.018 1545.39 20.7333 1545.76 20.556C1546.13 20.3787 1546.59 20.29 1547.12 20.29C1547.45 20.29 1547.74 20.318 1548.02 20.374C1548.29 20.43 1548.51 20.4907 1548.7 20.556L1548.32 21.69C1548.17 21.6433 1548 21.6013 1547.81 21.564C1547.61 21.5173 1547.4 21.494 1547.19 21.494C1546.82 21.494 1546.54 21.6153 1546.35 21.858C1546.17 22.1007 1546.08 22.4693 1546.08 22.964V23.454H1547.95V24.588ZM1559.4 23.454V31H1558.21L1558 30.006H1557.93C1557.77 30.2673 1557.57 30.482 1557.31 30.65C1557.06 30.818 1556.79 30.9393 1556.49 31.014C1556.19 31.098 1555.88 31.14 1555.56 31.14C1554.98 31.14 1554.48 31.0467 1554.07 30.86C1553.66 30.664 1553.36 30.3653 1553.14 29.964C1552.94 29.5533 1552.83 29.0307 1552.83 28.396V23.454H1554.33V28.172C1554.33 28.76 1554.45 29.1987 1554.7 29.488C1554.95 29.7773 1555.34 29.922 1555.86 29.922C1556.38 29.922 1556.79 29.8193 1557.09 29.614C1557.39 29.4087 1557.6 29.11 1557.72 28.718C1557.85 28.3167 1557.92 27.836 1557.92 27.276V23.454H1559.4ZM1566.73 28.872C1566.73 29.3667 1566.61 29.782 1566.37 30.118C1566.13 30.454 1565.78 30.7107 1565.32 30.888C1564.86 31.056 1564.31 31.14 1563.67 31.14C1563.14 31.14 1562.68 31.098 1562.3 31.014C1561.92 30.9393 1561.58 30.8273 1561.26 30.678V29.376C1561.6 29.5347 1561.98 29.6793 1562.42 29.81C1562.86 29.9313 1563.29 29.992 1563.71 29.992C1564.27 29.992 1564.67 29.9033 1564.91 29.726C1565.17 29.5487 1565.29 29.3107 1565.29 29.012C1565.29 28.844 1565.25 28.6947 1565.15 28.564C1565.06 28.424 1564.88 28.284 1564.62 28.144C1564.37 27.9947 1564 27.8267 1563.5 27.64C1563.02 27.444 1562.62 27.2527 1562.28 27.066C1561.95 26.87 1561.69 26.6413 1561.51 26.38C1561.34 26.1093 1561.25 25.764 1561.25 25.344C1561.25 24.6907 1561.51 24.1913 1562.03 23.846C1562.56 23.4913 1563.26 23.314 1564.13 23.314C1564.59 23.314 1565.02 23.3607 1565.42 23.454C1565.83 23.538 1566.23 23.6687 1566.61 23.846L1566.12 24.98C1565.9 24.8773 1565.68 24.7933 1565.45 24.728C1565.22 24.6533 1564.99 24.5927 1564.76 24.546C1564.54 24.4993 1564.3 24.476 1564.06 24.476C1563.61 24.476 1563.27 24.546 1563.04 24.686C1562.81 24.826 1562.69 25.022 1562.69 25.274C1562.69 25.4513 1562.74 25.6053 1562.84 25.736C1562.95 25.8667 1563.15 25.9973 1563.42 26.128C1563.69 26.2587 1564.06 26.4173 1564.52 26.604C1564.99 26.7813 1565.39 26.9633 1565.71 27.15C1566.05 27.3367 1566.3 27.5653 1566.47 27.836C1566.65 28.1067 1566.73 28.452 1566.73 28.872ZM1571.47 23.314C1572.13 23.314 1572.7 23.454 1573.18 23.734C1573.66 24.0047 1574.02 24.3967 1574.27 24.91C1574.53 25.4233 1574.66 26.03 1574.66 26.73V27.542H1569.6C1569.61 28.3167 1569.82 28.9093 1570.2 29.32C1570.59 29.7307 1571.14 29.936 1571.84 29.936C1572.32 29.936 1572.75 29.894 1573.12 29.81C1573.51 29.7167 1573.9 29.5813 1574.3 29.404V30.636C1573.93 30.804 1573.54 30.93 1573.15 31.014C1572.77 31.098 1572.31 31.14 1571.78 31.14C1571.05 31.14 1570.41 30.9953 1569.85 30.706C1569.29 30.4167 1568.85 29.9873 1568.53 29.418C1568.22 28.8393 1568.07 28.13 1568.07 27.29C1568.07 26.4407 1568.21 25.722 1568.49 25.134C1568.78 24.546 1569.18 24.098 1569.68 23.79C1570.19 23.4727 1570.79 23.314 1571.47 23.314ZM1571.47 24.462C1570.94 24.462 1570.51 24.6347 1570.18 24.98C1569.87 25.3253 1569.68 25.8153 1569.62 26.45H1573.18C1573.18 26.058 1573.12 25.7127 1573 25.414C1572.88 25.1153 1572.69 24.882 1572.44 24.714C1572.19 24.546 1571.86 24.462 1571.47 24.462Z" fill="#1434CB"/>
<path d="M1490 32.75H1575.35V33.45H1490V32.75Z" fill="#1434CB"/>
</svg>
