<svg width="46" height="46" viewBox="0 0 46 46" fill="none" xmlns="http://www.w3.org/2000/svg">
<g opacity="0.01">
<rect width="1" height="1" transform="translate(24 12)" fill="#FCC015"/>
</g>
<path d="M23 11C26.866 11 30 14.134 30 18V22C30 23.274 30.5082 23.9741 31.084 24.3887C31.7108 24.84 32.4934 25 33 25C33.5523 25 34 25.4477 34 26V28C34 28.5523 33.5523 29 33 29H12V27H32V26.8975C31.3333 26.766 30.5876 26.4952 29.916 26.0117C28.8252 25.2263 28 23.9259 28 22V18C28 15.2386 25.7614 13 23 13C20.2386 13 18 15.2386 18 18V25H16V18C16 14.134 19.134 11 23 11ZM23 15C24.6569 15 26 16.3431 26 18V22H24V18C24 17.4477 23.5523 17 23 17V15Z" fill="#FCC015"/>
<path d="M26 32C26 33.6569 24.6569 35 23 35C21.3431 35 20 33.6569 20 32V31H22V32C22 32.5523 22.4477 33 23 33C23.5523 33 24 32.5523 24 32V31H26V32Z" fill="white"/>
<path d="M38 0.5C42.1421 0.5 45.5 3.85786 45.5 8C45.5 12.1421 42.1421 15.5 38 15.5C33.8579 15.5 30.5 12.1421 30.5 8C30.5 3.85786 33.8579 0.5 38 0.5Z" fill="#AD2929"/>
<path d="M38 0.5C42.1421 0.5 45.5 3.85786 45.5 8C45.5 12.1421 42.1421 15.5 38 15.5C33.8579 15.5 30.5 12.1421 30.5 8C30.5 3.85786 33.8579 0.5 38 0.5Z" stroke="#AD2929"/>
<path d="M40.8664 7.592C40.8664 8.08 40.8304 8.568 40.7584 9.056C40.6864 9.536 40.5664 9.992 40.3984 10.424C40.2304 10.848 39.9904 11.228 39.6784 11.564C39.3744 11.892 38.9864 12.152 38.5144 12.344C38.0504 12.528 37.4864 12.62 36.8224 12.62C36.6624 12.62 36.4744 12.612 36.2584 12.596C36.0424 12.58 35.8624 12.552 35.7184 12.512V11.444C35.8704 11.492 36.0384 11.528 36.2224 11.552C36.4144 11.576 36.5984 11.588 36.7744 11.588C37.3264 11.588 37.7784 11.508 38.1304 11.348C38.4904 11.18 38.7744 10.948 38.9824 10.652C39.1984 10.356 39.3544 10.012 39.4504 9.62C39.5464 9.228 39.6024 8.812 39.6184 8.372H39.5464C39.4264 8.556 39.2784 8.724 39.1024 8.876C38.9264 9.028 38.7104 9.148 38.4544 9.236C38.2064 9.324 37.9064 9.368 37.5544 9.368C37.0664 9.368 36.6344 9.264 36.2584 9.056C35.8904 8.848 35.6064 8.552 35.4064 8.168C35.2064 7.776 35.1064 7.3 35.1064 6.74C35.1064 6.132 35.2184 5.612 35.4424 5.18C35.6744 4.74 35.9984 4.404 36.4144 4.172C36.8384 3.94 37.3304 3.824 37.8904 3.824C38.3064 3.824 38.6944 3.9 39.0544 4.052C39.4144 4.204 39.7304 4.436 40.0024 4.748C40.2744 5.06 40.4864 5.452 40.6384 5.924C40.7904 6.396 40.8664 6.952 40.8664 7.592ZM37.9024 4.868C37.4464 4.868 37.0744 5.02 36.7864 5.324C36.4984 5.628 36.3544 6.092 36.3544 6.716C36.3544 7.228 36.4744 7.632 36.7144 7.928C36.9624 8.224 37.3424 8.372 37.8544 8.372C38.2064 8.372 38.5104 8.3 38.7664 8.156C39.0224 8.004 39.2224 7.82 39.3664 7.604C39.5104 7.38 39.5824 7.148 39.5824 6.908C39.5824 6.668 39.5464 6.428 39.4744 6.188C39.4024 5.948 39.2984 5.728 39.1624 5.528C39.0264 5.328 38.8504 5.168 38.6344 5.048C38.4264 4.928 38.1824 4.868 37.9024 4.868Z" fill="white"/>
</svg>
