<svg width="24" height="24" viewBox="0 0 24 24" fill="none" xmlns="http://www.w3.org/2000/svg">
<g opacity="0.01">
<rect width="1" height="1" transform="translate(17 17)" fill="#1434CB"/>
</g>
<path d="M24 22.4814L22.4814 24L15 16.5186C15.5551 16.0641 16.0641 15.5551 16.5186 15L24 22.4814ZM9 5C11.2056 5 13 6.79443 13 9H11C11 7.89697 10.103 7 9 7V5Z" fill="#FCC015"/>
<path d="M9 1C13.4111 1 17 4.58887 17 9C17 13.4111 13.4111 17 9 17C4.58887 17 1 13.4111 1 9C1 4.58887 4.58887 1 9 1ZM9 3C5.69141 3 3 5.69141 3 9C3 12.3086 5.69141 15 9 15C12.3086 15 15 12.3086 15 9C15 5.69141 12.3086 3 9 3Z" fill="#FCC015"/>
</svg>
