<svg width="72" height="58" viewBox="0 0 72 58" fill="none" xmlns="http://www.w3.org/2000/svg">
<path d="M24 23C29.5228 23 34 27.4772 34 33V35H32V33C32 28.5817 28.4183 25 24 25C19.5817 25 16 28.5817 16 33V35H14V33C14 27.4772 18.4772 23 24 23Z" fill="#FCC015"/>
<path d="M24 11C26.7614 11 29 13.2386 29 16C29 18.7614 26.7614 21 24 21C21.2386 21 19 18.7614 19 16C19 13.2386 21.2386 11 24 11ZM24 13C22.3431 13 21 14.3431 21 16C21 17.6569 22.3431 19 24 19C25.6569 19 27 17.6569 27 16C27 14.3431 25.6569 13 24 13Z" fill="white"/>
<path d="M45 20.3936L46.4756 19L52 24.2139L57.5244 19L59 20.3936L52 27L45 20.3936Z" fill="white" fill-opacity="0.5"/>
</svg>
